<svg width="33" height="33" viewBox="0 0 33 33" fill="none" xmlns="http://www.w3.org/2000/svg">
<path d="M32.0077 16.5C32.0077 25.3366 24.8442 32.5 16.0077 32.5C7.17111 32.5 0.00766395 25.3366 0.00766395 16.5C0.00766395 7.66344 7.17111 0.5 16.0077 0.5C24.8442 0.5 32.0077 7.66344 32.0077 16.5Z" fill="#6366F1"/>
<path d="M10.5 6L8 30L11.5 31.5L13 23.5L21.5 31L25.5 29L17 18.5L23 9L21.5 5L13.5 17.5L14 6H10.5Z" fill="white" stroke="white"/>
<path d="M10.5 6L8 30L11.5 31.5L13 23.5L21.5 31L25.5 29L17 18.5L23 9L21.5 5L13.5 17.5L14 6H10.5Z" fill="white" stroke="white"/>
</svg>
